# xmcd
#
# Track frame offsets:
#	150
#	18403
#	36879
#	49727
#	60404
#	68540
#	78103
#	90578
#	99255
#	115949
#	129354
#	144869
#	156550
#	170049
#	185161
#	199183
#	212076
#
# Disc length: 3057
#
# Revision: 1
# Processed by: cddbd v1.5.1PL0 Copyright (c) Steve Scherf et al.
# Submitted via: dBpowerAMP V4.0
# Normalized: r0:TDELIM( - )
#
DISCID=e30bef11
DTITLE=Various Artist - Bloodshoot Records Sampler 2001
DYEAR=2001
DGENRE=Alt Country
TTITLE0=Waco Brothers - Fox River
TTITLE1=Alejandro Escovedo - Rhapsody
TTITLE2=Split Lip Rayfield - Movin' to Virginia
TTITLE3=Trailer Bride - Itchin' For You
TTITLE4=Wayne Hancock - A-Town Blues
TTITLE5=Ryan Adams - Damn, Sam
TTITLE6=Robbie Fulks - Cocktails
TTITLE7=Sadies, The - One Million Songs
TTITLE8=Sally Timms - The Sad Milkman
TTITLE9=Yayhoos, The - What Are We Waiting For
TTITLE10=Kelly Hogan - Sugarbowl
TTITLE11=Rex Hobart and The Misery Boys - Bridge Burners Union
TTITLE12=Neko Case and Her Boyfriends - Set Out Running
TTITLE13=Devil in a Woodpile - I Shall Not Be Moved
TTITLE14=Blacks, The - To A Sucker
TTITLE15=Riptones, The - Rebel Rock Armageddon
TTITLE16=Old 97's - Victoria
EXTD=
EXTT0=
EXTT1=
EXTT2=
EXTT3=
EXTT4=
EXTT5=
EXTT6=
EXTT7=
EXTT8=
EXTT9=
EXTT10=
EXTT11=
EXTT12=
EXTT13=
EXTT14=
EXTT15=
EXTT16=
PLAYORDER=
